<?xml version="1.0" encoding="UTF-8" standalone="no"?>
<!-- Created with Inkscape (http://www.inkscape.org/) -->

<svg
   xmlns:dc="http://purl.org/dc/elements/1.1/"
   xmlns:cc="http://creativecommons.org/ns#"
   xmlns:rdf="http://www.w3.org/1999/02/22-rdf-syntax-ns#"
   xmlns:svg="http://www.w3.org/2000/svg"
   xmlns="http://www.w3.org/2000/svg"
   xmlns:sodipodi="http://sodipodi.sourceforge.net/DTD/sodipodi-0.dtd"
   xmlns:inkscape="http://www.inkscape.org/namespaces/inkscape"
   width="210mm"
   height="297mm"
   id="svg2"
   version="1.1"
   inkscape:version="0.48.1 "
   sodipodi:docname="yingyang.svg">
  <defs
     id="defs4" />
  <sodipodi:namedview
     id="base"
     pagecolor="#ffffff"
     bordercolor="#666666"
     borderopacity="1.0"
     inkscape:pageopacity="0.0"
     inkscape:pageshadow="2"
     inkscape:zoom="0.5305008"
     inkscape:cx="174.97976"
     inkscape:cy="526.18109"
     inkscape:document-units="px"
     inkscape:current-layer="layer1"
     showgrid="false"
     inkscape:window-width="1280"
     inkscape:window-height="706"
     inkscape:window-x="-8"
     inkscape:window-y="-8"
     inkscape:window-maximized="1" />
  <metadata
     id="metadata7">
    <rdf:RDF>
      <cc:Work
         rdf:about="">
        <dc:format>image/svg+xml</dc:format>
        <dc:type
           rdf:resource="http://purl.org/dc/dcmitype/StillImage" />
      </cc:Work>
    </rdf:RDF>
  </metadata>
  <g
     inkscape:label="Capa 1"
     inkscape:groupmode="layer"
     id="layer1">
    <path
       style="fill:#000000;fill-opacity:1;fill-rule:evenodd;stroke:none"
       d="M 372.0625 181.1875 L 372.0625 181.21875 C 465.95146 182.81546 541.5625 259.41766 541.5625 353.6875 C 541.5625 447.95734 465.95146 524.55954 372.0625 526.15625 L 372.0625 526.21875 C 371.26836 526.20798 370.48419 526.1875 369.6875 526.1875 C 274.41838 526.1875 197.1875 603.41838 197.1875 698.6875 C 197.1875 793.95661 274.41838 871.1875 369.6875 871.1875 C 370.48419 871.1875 371.26836 871.16702 372.0625 871.15625 L 372.0625 871.1875 C 562.60074 871.1875 717.0625 716.72574 717.0625 526.1875 C 717.0625 335.64926 562.60074 181.1875 372.0625 181.1875 z M 369.6875 653.6875 C 394.54031 653.6875 414.6875 673.83469 414.6875 698.6875 C 414.6875 723.54031 394.54031 743.6875 369.6875 743.6875 C 344.83469 743.6875 324.6875 723.54031 324.6875 698.6875 C 324.6875 673.83469 344.83469 653.6875 369.6875 653.6875 z "
       id="path3767" />
    <path
       sodipodi:type="arc"
       style="fill:#000000;fill-opacity:1;fill-rule:evenodd;stroke:none"
       id="path3794"
       sodipodi:cx="-218.19295"
       sodipodi:cy="312.93051"
       sodipodi:rx="60.609154"
       sodipodi:ry="60.609154"
       d="m -157.58379,312.93051 a 60.609154,60.609154 0 1 1 -121.21831,0 60.609154,60.609154 0 1 1 121.21831,0 z"
       transform="matrix(0.74246211,0,0,0.74246211,531.07712,121.34845)" />
    <path
       id="path3803"
       d="m 366.42096,871.1875 0,-0.0312 c -93.88896,-1.59671 -169.5,-78.19891 -169.5,-172.46875 0,-94.26984 75.61104,-170.87204 169.5,-172.46875 l 0,-0.0625 c 0.79414,0.0108 1.57831,0.0312 2.375,0.0312 95.26912,0 172.5,-77.23088 172.5,-172.5 0,-95.26911 -77.23088,-172.5 -172.5,-172.5 -0.79669,0 -1.58086,0.0205 -2.375,0.0312 l 0,-0.0312 c -190.53824,0 -345.000003,154.46176 -345.000003,345 0,190.53824 154.461763,345 345.000003,345 z m 2.375,-472.5 c -24.85281,0 -45,-20.14719 -45,-45 0,-24.85281 20.14719,-45 45,-45 24.85281,0 45,20.14719 45,45 0,24.85281 -20.14719,45 -45,45 z"
       style="fill:#ffffff;fill-opacity:1;fill-rule:evenodd;stroke:#000000;stroke-width:0;stroke-miterlimit:4;stroke-dasharray:none;stroke-opacity:1"
       inkscape:connector-curvature="0" />
    <path
       style="fill:#000000;fill-opacity:1;fill-rule:evenodd;stroke:none"
       d="M 372.0625 173.6875 C 177.38212 173.6875 19.5625 331.50712 19.5625 526.1875 C 19.5625 720.86788 177.38212 878.6875 372.0625 878.6875 C 566.74288 878.6875 724.5625 720.86788 724.5625 526.1875 C 724.5625 331.50712 566.74288 173.6875 372.0625 173.6875 z M 372.0625 181.1875 C 562.60074 181.1875 717.0625 335.64926 717.0625 526.1875 C 717.0625 716.72574 562.60074 871.1875 372.0625 871.1875 C 181.52426 871.1875 27.0625 716.72574 27.0625 526.1875 C 27.0625 335.64926 181.52426 181.1875 372.0625 181.1875 z "
       id="path3805" />
  </g>
</svg>
